<svg width="1023" height="284" viewBox="0 0 1023 284" fill="none" xmlns="http://www.w3.org/2000/svg">
    <path d="M83.7356 89.2537C61.9338 111.028 53.6914 137.158 56.0832 167.223C63.1919 166.249 67.2369 162.103 67.6443 155.84C69.6842 124.478 91.2508 96.6513 121.33 86.6015C122.245 86.2959 123.232 86.2071 125.169 85.8215C125.169 93.7764 125.247 101.329 125.116 108.879C125.082 110.841 123.019 111.325 121.595 112.06C116.691 114.592 112.171 117.66 107.9 121.158C95.9022 130.982 90.2212 144.062 91.5044 159.028C92.5981 171.784 88.1756 179.087 77.0313 184.908C64.0823 191.672 52.4249 200.766 40.7499 209.631C39.2529 210.767 37.8031 211.68 35.819 211.672C24.4939 211.623 13.1685 211.645 1.84326 211.609C1.23407 211.608 0.625822 211.303 0.0284397 211.142C-0.253084 208.777 1.61853 208.203 2.85672 207.296C12.9335 199.92 23.0468 192.594 33.1699 185.281C35.0876 183.895 36.9246 182.826 36.0734 179.732C20.662 123.708 58.6713 68.8085 101.608 48.2731C108.512 44.9715 115.223 41.2359 122.613 39.0538C123.199 38.8807 123.881 39.031 125.141 39.031C125.141 46.3325 125.157 53.4489 125.134 60.5652C125.125 63.4577 122.644 63.7893 120.726 64.6082C106.975 70.4794 94.2123 77.8287 83.7356 89.2537Z" fill="#997029"/>
    <path d="M215.4 182.891C206.27 179.282 203.699 173.034 204.298 163.619C205.743 140.905 195.655 124.121 175.426 113.731C170.719 111.314 169.042 108.182 169.422 103.055C169.824 97.6311 169.512 92.1538 169.512 87.1496C171.799 85.8227 173.2 86.6526 174.53 87.2222C202.481 99.1988 221.688 118.527 226.838 149.623C227.001 150.605 227.102 151.603 227.154 152.598C227.678 162.636 227.929 162.995 237.79 167.415C239.314 166.117 239.359 164.284 239.494 162.481C241.827 131.49 230.09 106.313 207.667 85.5771C198.137 76.7641 187.229 70.1285 175.075 65.6269C170.865 64.0677 169.139 61.5656 169.434 56.9908C169.806 51.2248 169.524 45.4166 169.524 39.9799C171.762 38.5073 173.301 39.3884 174.81 39.9679C218.642 56.7989 249.058 86.0551 260.37 132.804C263.902 147.402 263.984 162.147 260.423 176.775C259.427 180.867 260.16 183.456 263.774 185.983C273.46 192.755 282.851 199.949 292.328 207.016C293.626 207.984 295.3 208.625 295.846 210.433C295.202 212.175 293.654 211.654 292.455 211.657C281.961 211.683 271.468 211.629 260.975 211.621C258.93 211.62 257.163 211.208 255.432 209.875C242.759 200.11 229.345 191.43 215.4 182.891Z" fill="#997029"/>
    <path d="M135.503 177.369C135.502 129.056 135.576 81.2419 135.45 33.4288C135.418 21.1458 142.223 11.5125 146.669 0C150.09 4.30618 151.172 8.65291 153.208 12.488C158.021 21.5531 159.372 31.0959 159.335 41.3525C159.076 114.988 159.161 188.624 159.28 262.26C159.288 267.343 158.685 271.583 154.469 275.072C151.852 277.237 149.986 280.309 147.575 283.226C143.62 278.657 139.885 274.475 136.318 270.154C134.95 268.497 135.524 266.299 135.522 264.333C135.495 235.512 135.503 206.691 135.503 177.369Z" fill="#997029"/>
    <path d="M125.763 176.375C124.794 206.736 126.189 236.627 125.564 267.234C117.264 265.073 110.826 261.379 104.442 257.612C102.365 256.386 102.894 254.076 102.915 252.136C103.052 239.489 103.351 226.844 103.407 214.197C103.493 194.571 102.33 174.942 103.459 155.319C104.158 143.153 112.037 133.739 124.99 130.139C125.249 145.511 125.505 160.694 125.763 176.375Z" fill="#997029"/>
    <path d="M169.512 262.062C169.507 218.19 169.507 174.78 169.507 131.339C179.659 131.809 191.046 143.062 191.048 153.051C191.053 176.195 192.225 199.328 191.435 222.484C191.101 232.286 191.588 242.127 192.007 251.937C192.174 255.85 190.87 258.147 187.242 259.617C182.776 261.426 178.496 263.691 174.091 265.657C171 267.036 169.28 266.142 169.512 262.062Z" fill="#997029"/>
    <path d="M63.7503 210.211C73.0038 204.173 73.0038 204.173 80.6479 211.557C81.3647 212.25 81.9824 213.108 82.8149 213.608C97.9186 222.677 90.1205 237.017 92.0897 248.788C89.7891 250.062 88.8996 249.262 87.9618 248.554C78.1165 241.121 69.0359 232.897 61.3569 223.183C55.457 215.719 55.4097 215.756 63.7503 210.211Z" fill="#997029"/>
    <path d="M203.504 230.431C202.45 223.923 204.607 219.533 209.612 215.932C213.081 213.437 216.009 210.115 218.887 206.901C221.075 204.459 223.022 204.1 225.748 205.964C229.316 208.403 233.08 210.555 236.749 212.848C238.708 214.072 239.587 215.427 237.912 217.701C229.458 229.174 219.716 239.337 207.993 247.515C206.933 248.255 205.858 249.19 203.504 248.336C203.504 242.743 203.504 236.831 203.504 230.431Z" fill="#997029"/>
    <path d="M828.438 39.28H856.79V46.512H837.398V58.8H855.51V65.712H837.398V86H828.438V39.28Z" fill="#997029"/>
    <path d="M766.112 45.168C770.379 40.816 776.053 38.64 783.136 38.64C790.219 38.64 795.872 40.816 800.096 45.168C804.363 49.4773 806.496 55.3013 806.496 62.64C806.496 69.9787 804.363 75.824 800.096 80.176C795.872 84.4853 790.219 86.64 783.136 86.64C776.053 86.64 770.379 84.4853 766.112 80.176C761.888 75.824 759.776 69.9787 759.776 62.64C759.776 55.3013 761.888 49.4773 766.112 45.168ZM772.768 74.928C775.328 77.8294 778.784 79.28 783.136 79.28C787.488 79.28 790.944 77.8294 793.504 74.928C796.064 71.984 797.344 67.888 797.344 62.64C797.344 57.392 796.064 53.3173 793.504 50.416C790.944 47.472 787.488 46 783.136 46C778.784 46 775.328 47.472 772.768 50.416C770.208 53.3173 768.928 57.392 768.928 62.64C768.928 67.888 770.208 71.984 772.768 74.928Z" fill="#997029"/>
    <path d="M679.364 39.28V59.568H679.492L695.812 39.28H706.244L687.684 61.68L706.884 86H696.452L679.492 63.792H679.364V86H670.404V39.28H679.364Z" fill="#997029"/>
    <path d="M608.621 86V39.28H617.389L636.653 71.088H636.781V39.28H645.549V86H636.781L617.517 54.192H617.389V86H608.621Z" fill="#997029"/>
    <path d="M544.951 86L561.143 39.28H570.743L586.999 86H577.399L574.071 74.736H557.623L554.231 86H544.951ZM559.607 67.888H572.023L565.879 47.152H565.751L559.607 67.888Z" fill="#997029"/>
    <path d="M502.888 58.096H505.256C509.224 58.096 512.083 57.5627 513.832 56.496C515.624 55.3867 516.52 53.7653 516.52 51.632C516.52 49.584 515.795 48.0693 514.344 47.088C512.936 46.1067 510.589 45.616 507.304 45.616C505.683 45.616 504.211 45.744 502.888 46V58.096ZM502.888 64.752V79.28C504.381 79.536 505.981 79.664 507.688 79.664C511.229 79.664 513.811 79.024 515.432 77.744C517.096 76.4213 517.928 74.416 517.928 71.728C517.928 69.3387 516.989 67.5893 515.112 66.48C513.235 65.328 510.099 64.752 505.704 64.752H502.888ZM526.504 72.56C526.504 77.2533 524.968 80.7733 521.896 83.12C518.824 85.4667 514.024 86.64 507.496 86.64C502.76 86.64 498.28 86.32 494.056 85.68V39.6C498.067 38.96 502.333 38.64 506.856 38.64C518.803 38.64 524.776 42.544 524.776 50.352C524.776 52.9973 523.901 55.28 522.152 57.2C520.403 59.0773 518.077 60.2933 515.176 60.848V60.976C518.675 61.4453 521.427 62.7467 523.432 64.88C525.48 66.9707 526.504 69.5307 526.504 72.56Z" fill="#997029"/>
    <path d="M937.561 126.528C953.604 126.528 965.934 130.453 974.553 138.304C983.172 146.069 987.481 156.907 987.481 170.816C987.481 184.725 983.3 195.733 974.937 203.84C966.574 211.947 953.774 216 936.537 216H906.841V126.528H937.561ZM972.249 171.2C972.249 150.72 960.516 140.48 937.049 140.48H921.945V201.792H938.713C949.55 201.792 957.828 199.232 963.545 194.112C969.348 188.907 972.249 181.269 972.249 171.2Z" fill="#997029"/>
    <path d="M863.38 155.584C863.38 170.347 856.937 179.648 844.052 183.488L867.476 216H848.276L826.9 185.92H807.06V216H791.956V126.528H825.236C838.889 126.528 848.66 128.832 854.548 133.44C860.436 138.048 863.38 145.429 863.38 155.584ZM825.876 172.224C834.409 172.224 840.212 170.901 843.284 168.256C846.356 165.611 847.892 161.387 847.892 155.584C847.892 149.696 846.313 145.685 843.156 143.552C839.999 141.333 834.367 140.224 826.26 140.224H807.06V172.224H825.876Z" fill="#997029"/>
    <path d="M687.868 195.648L678.908 216H662.78L702.204 126.528H718.332L757.756 216H741.628L732.668 195.648H687.868ZM726.524 181.696L710.268 144.832L694.012 181.696H726.524Z" fill="#997029"/>
    <path d="M618.513 172.48H633.617V203.072C625.169 212.373 613.094 217.024 597.393 217.024C584.166 217.024 573.073 212.672 564.113 203.968C555.238 195.264 550.801 184.256 550.801 170.944C550.801 157.632 555.324 146.539 564.369 137.664C573.5 128.789 584.508 124.352 597.393 124.352C610.278 124.352 620.988 128.107 629.521 135.616L621.457 147.136C617.958 144.149 614.417 142.101 610.833 140.992C607.334 139.797 603.238 139.2 598.545 139.2C589.5 139.2 581.905 142.144 575.761 148.032C569.617 153.835 566.545 161.515 566.545 171.072C566.545 180.544 569.532 188.181 575.505 193.984C581.478 199.701 588.689 202.56 597.137 202.56C605.67 202.56 612.796 200.725 618.513 197.056V172.48Z" fill="#997029"/>
    <path d="M481.184 138.304C476.832 138.304 473.248 139.2 470.432 140.992C467.616 142.784 466.208 145.515 466.208 149.184C466.208 152.768 467.616 155.541 470.432 157.504C473.248 159.381 479.221 161.429 488.352 163.648C497.568 165.867 504.48 168.981 509.088 172.992C513.781 177.003 516.128 182.933 516.128 190.784C516.128 198.549 513.184 204.864 507.296 209.728C501.408 214.592 493.685 217.024 484.128 217.024C470.133 217.024 457.717 212.203 446.88 202.56L456.352 191.168C465.397 199.019 474.784 202.944 484.512 202.944C489.376 202.944 493.216 201.92 496.032 199.872C498.933 197.739 500.384 194.965 500.384 191.552C500.384 188.053 499.019 185.365 496.288 183.488C493.643 181.525 489.035 179.776 482.464 178.24C475.893 176.619 470.901 175.168 467.488 173.888C464.075 172.523 461.045 170.773 458.4 168.64C453.109 164.629 450.464 158.485 450.464 150.208C450.464 141.931 453.451 135.573 459.424 131.136C465.483 126.613 472.949 124.352 481.824 124.352C487.541 124.352 493.216 125.291 498.848 127.168C504.48 129.045 509.344 131.691 513.44 135.104L505.376 146.496C502.731 144.107 499.147 142.144 494.624 140.608C490.101 139.072 485.621 138.304 481.184 138.304Z" fill="#997029"/>
    <path d="M350.088 195.648L341.128 216H325L364.424 126.528H380.552L419.976 216H403.848L394.888 195.648H350.088ZM388.744 181.696L372.488 144.832L356.232 181.696H388.744Z" fill="#997029"/>
</svg>
