<svg width="296" height="284" viewBox="0 0 296 284" fill="none" xmlns="http://www.w3.org/2000/svg">
    <path d="M83.7356 89.2537C61.9338 111.028 53.6914 137.158 56.0832 167.223C63.1919 166.249 67.2369 162.103 67.6443 155.84C69.6842 124.478 91.2508 96.6513 121.33 86.6015C122.245 86.2959 123.232 86.2071 125.169 85.8215C125.169 93.7764 125.247 101.329 125.116 108.879C125.082 110.841 123.019 111.325 121.595 112.06C116.691 114.592 112.171 117.66 107.9 121.158C95.9022 130.982 90.2212 144.062 91.5044 159.028C92.5981 171.784 88.1756 179.087 77.0313 184.908C64.0823 191.672 52.4249 200.766 40.7499 209.631C39.2529 210.767 37.8031 211.68 35.819 211.672C24.4939 211.623 13.1685 211.645 1.84326 211.609C1.23407 211.608 0.625822 211.303 0.0284397 211.142C-0.253084 208.777 1.61853 208.203 2.85672 207.296C12.9335 199.92 23.0468 192.594 33.1699 185.281C35.0876 183.895 36.9246 182.826 36.0734 179.732C20.662 123.708 58.6713 68.8085 101.608 48.2731C108.512 44.9715 115.223 41.2359 122.613 39.0538C123.199 38.8807 123.881 39.031 125.141 39.031C125.141 46.3325 125.157 53.4489 125.134 60.5652C125.125 63.4577 122.644 63.7893 120.726 64.6082C106.975 70.4794 94.2123 77.8287 83.7356 89.2537Z" fill="#997029"/>
    <path d="M215.4 182.891C206.27 179.282 203.699 173.034 204.298 163.619C205.743 140.905 195.655 124.121 175.426 113.731C170.719 111.314 169.042 108.182 169.422 103.055C169.824 97.6311 169.512 92.1538 169.512 87.1496C171.799 85.8227 173.2 86.6526 174.53 87.2222C202.481 99.1988 221.688 118.527 226.838 149.623C227.001 150.605 227.102 151.603 227.154 152.598C227.678 162.636 227.929 162.995 237.79 167.415C239.314 166.117 239.359 164.284 239.494 162.481C241.827 131.49 230.09 106.313 207.667 85.5771C198.137 76.7641 187.229 70.1285 175.075 65.6269C170.865 64.0677 169.139 61.5656 169.434 56.9908C169.806 51.2248 169.524 45.4166 169.524 39.9799C171.762 38.5073 173.301 39.3884 174.81 39.9679C218.642 56.7989 249.058 86.0551 260.37 132.804C263.902 147.402 263.984 162.147 260.423 176.775C259.427 180.867 260.16 183.456 263.774 185.983C273.46 192.755 282.851 199.949 292.328 207.016C293.626 207.984 295.3 208.625 295.846 210.433C295.202 212.175 293.654 211.654 292.455 211.657C281.961 211.683 271.468 211.629 260.975 211.621C258.93 211.62 257.163 211.208 255.432 209.875C242.759 200.11 229.345 191.43 215.4 182.891Z" fill="#997029"/>
    <path d="M135.503 177.369C135.502 129.056 135.576 81.2419 135.45 33.4288C135.418 21.1458 142.223 11.5125 146.669 0C150.09 4.30618 151.172 8.65291 153.208 12.488C158.021 21.5531 159.372 31.0959 159.335 41.3525C159.076 114.988 159.161 188.624 159.28 262.26C159.288 267.343 158.685 271.583 154.469 275.072C151.852 277.237 149.986 280.309 147.575 283.226C143.62 278.657 139.885 274.475 136.318 270.154C134.95 268.497 135.524 266.299 135.522 264.333C135.495 235.512 135.503 206.691 135.503 177.369Z" fill="#997029"/>
    <path d="M125.763 176.375C124.794 206.736 126.189 236.627 125.564 267.234C117.264 265.073 110.826 261.379 104.442 257.612C102.365 256.386 102.894 254.076 102.915 252.136C103.052 239.489 103.351 226.844 103.407 214.197C103.493 194.571 102.33 174.942 103.459 155.319C104.158 143.153 112.037 133.739 124.99 130.139C125.249 145.511 125.505 160.694 125.763 176.375Z" fill="#997029"/>
    <path d="M169.512 262.062C169.507 218.19 169.507 174.78 169.507 131.339C179.659 131.809 191.046 143.062 191.048 153.051C191.053 176.195 192.225 199.328 191.435 222.484C191.101 232.286 191.588 242.127 192.007 251.937C192.174 255.85 190.87 258.147 187.242 259.617C182.776 261.426 178.496 263.691 174.091 265.657C171 267.036 169.28 266.142 169.512 262.062Z" fill="#997029"/>
    <path d="M63.7503 210.211C73.0038 204.173 73.0038 204.173 80.6479 211.557C81.3647 212.25 81.9824 213.108 82.8149 213.608C97.9186 222.677 90.1205 237.017 92.0897 248.788C89.7891 250.062 88.8996 249.262 87.9618 248.554C78.1165 241.121 69.0359 232.897 61.3569 223.183C55.457 215.719 55.4097 215.756 63.7503 210.211Z" fill="#997029"/>
    <path d="M203.504 230.431C202.45 223.923 204.607 219.533 209.612 215.932C213.081 213.437 216.009 210.115 218.887 206.901C221.075 204.459 223.022 204.1 225.748 205.964C229.316 208.403 233.08 210.555 236.749 212.848C238.708 214.072 239.587 215.427 237.912 217.701C229.458 229.174 219.716 239.337 207.993 247.515C206.933 248.255 205.858 249.19 203.504 248.336C203.504 242.743 203.504 236.831 203.504 230.431Z" fill="#997029"/>
</svg>
